<?xml version="1.0" encoding="UTF-8" standalone="no"?>
<svg xmlns:rdf="http://www.w3.org/1999/02/22-rdf-syntax-ns#" xmlns="http://www.w3.org/2000/svg" height="24" width="24" version="1.1" xmlns:cc="http://creativecommons.org/ns#" xmlns:dc="http://purl.org/dc/elements/1.1/" viewBox="0 0 24 24">
 <path d="m7.4094 12.375c-.3299.330-.5128.744-.5649 1.172l5.5145 2.363 8.485-8.4851c.78347-.78347.78347-2.045 0-2.8284l-1.414-1.4142c-.78348-.78347-2.045-.78347-2.8284 0zm-2.8236 4.039 1.4142 5.586 5-5-5-2zm12.723-11.11c.39052-.39052 1.0237-.39052 1.4142 0 .39052.39052.39052 1.0237 0 1.4142-.39052.39052-1.0237.39052-1.4142 0-.39052-.39052-.39052-1.0237 0-1.4142z"/>
</svg>
